<svg width="34" height="34" viewBox="0 0 34 34" fill="none" xmlns="http://www.w3.org/2000/svg">
<rect width="34" height="34" rx="17" fill="#443C35"/>
<path d="M13.185 14.3496C12.9988 14.3496 12.8401 14.2861 12.709 14.1592C12.5778 14.0322 12.5122 13.8714 12.5122 13.6768C12.5122 13.4821 12.5778 13.3202 12.709 13.1912C12.8401 13.0621 12.9988 12.9976 13.185 12.9976C13.3755 12.9976 13.5373 13.0621 13.6706 13.1912C13.8039 13.3202 13.8706 13.4821 13.8706 13.6768C13.8706 13.863 13.8039 14.0216 13.6706 14.1528C13.5373 14.284 13.3755 14.3496 13.185 14.3496ZM13.6928 22.5H12.6518V16H13.6928V22.5ZM21.3481 21.9795C21.3481 24.3662 20.2055 25.5596 17.9204 25.5596C17.1163 25.5596 16.4139 25.4072 15.813 25.1025V24.0615C16.5451 24.4678 17.2433 24.6709 17.9077 24.6709C19.5073 24.6709 20.3071 23.8203 20.3071 22.1191V21.4082H20.2817C19.7866 22.2376 19.0418 22.6523 18.0473 22.6523C17.2391 22.6523 16.5884 22.3635 16.0954 21.7859C15.6024 21.2083 15.3559 20.4328 15.3559 19.4595C15.3559 18.355 15.6215 17.4769 16.1526 16.8252C16.6836 16.1735 17.4105 15.8477 18.333 15.8477C19.209 15.8477 19.8585 16.1989 20.2817 16.9014H20.3071V16H21.3481V21.9795ZM20.3071 19.561V18.6025C20.3071 18.0863 20.1325 17.644 19.7834 17.2759C19.4343 16.9077 18.9995 16.7236 18.479 16.7236C17.8357 16.7236 17.3322 16.9574 16.9682 17.425C16.6043 17.8927 16.4223 18.5475 16.4223 19.3896C16.4223 20.1133 16.5969 20.692 16.946 21.1257C17.2951 21.5595 17.7575 21.7764 18.333 21.7764C18.917 21.7764 19.392 21.569 19.758 21.1543C20.1241 20.7396 20.3071 20.2085 20.3071 19.561Z" fill="#CFC6BB"/>
</svg>
