<svg width="34" height="34" viewBox="0 0 34 34" fill="none" xmlns="http://www.w3.org/2000/svg">
<rect width="34" height="34" rx="17" fill="#443C35"/>
<path d="M13.3342 14.3496C13.148 14.3496 12.9893 14.2861 12.8581 14.1592C12.727 14.0322 12.6614 13.8714 12.6614 13.6768C12.6614 13.4821 12.727 13.3202 12.8581 13.1912C12.9893 13.0621 13.148 12.9976 13.3342 12.9976C13.5247 12.9976 13.6865 13.0621 13.8198 13.1912C13.9531 13.3202 14.0198 13.4821 14.0198 13.6768C14.0198 13.863 13.9531 14.0216 13.8198 14.1528C13.6865 14.284 13.5247 14.3496 13.3342 14.3496ZM13.842 22.5H12.801V16H13.842V22.5ZM21.345 22.5H20.304V18.793C20.304 17.4134 19.8004 16.7236 18.7932 16.7236C18.2727 16.7236 17.8421 16.9194 17.5015 17.3108C17.1608 17.7022 16.9905 18.1963 16.9905 18.793V22.5H15.9495V16H16.9905V17.0791H17.0159C17.5067 16.2581 18.2177 15.8477 19.1487 15.8477C19.8596 15.8477 20.4034 16.0772 20.78 16.5364C21.1567 16.9955 21.345 17.6589 21.345 18.5264V22.5Z" fill="#CFC6BB"/>
</svg>
